<svg xmlns="http://www.w3.org/2000/svg" xmlns:xlink="http://www.w3.org/1999/xlink" width="2000" zoomAndPan="magnify" viewBox="0 0 1500 1499.999933" height="2000" preserveAspectRatio="xMidYMid meet" version="1.0"><defs><g/><clipPath id="b2c87647d6"><path d="M 221 0.398438 L 916.921875 0.398438 L 916.921875 208 L 221 208 Z M 221 0.398438 " clip-rule="nonzero"/></clipPath><clipPath id="515d4a2cac"><path d="M 363 63 L 460 63 L 460 207.761719 L 363 207.761719 Z M 363 63 " clip-rule="nonzero"/></clipPath><clipPath id="fa2d4f9046"><rect x="0" width="696" y="0" height="208"/></clipPath><clipPath id="ea626ee003"><path d="M 1.949219 9.359375 L 189.464844 9.359375 L 189.464844 196.875 L 1.949219 196.875 Z M 1.949219 9.359375 " clip-rule="nonzero"/></clipPath><clipPath id="0e0ef99895"><path d="M 95.707031 9.359375 C 43.925781 9.359375 1.949219 51.335938 1.949219 103.117188 C 1.949219 154.898438 43.925781 196.875 95.707031 196.875 C 147.488281 196.875 189.464844 154.898438 189.464844 103.117188 C 189.464844 51.335938 147.488281 9.359375 95.707031 9.359375 Z M 95.707031 9.359375 " clip-rule="nonzero"/></clipPath><clipPath id="7211c306cc"><path d="M 0.949219 0.359375 L 188.464844 0.359375 L 188.464844 187.875 L 0.949219 187.875 Z M 0.949219 0.359375 " clip-rule="nonzero"/></clipPath><clipPath id="0c1f20096d"><path d="M 94.707031 0.359375 C 42.925781 0.359375 0.949219 42.335938 0.949219 94.117188 C 0.949219 145.898438 42.925781 187.875 94.707031 187.875 C 146.488281 187.875 188.464844 145.898438 188.464844 94.117188 C 188.464844 42.335938 146.488281 0.359375 94.707031 0.359375 Z M 94.707031 0.359375 " clip-rule="nonzero"/></clipPath><clipPath id="3812f0a153"><rect x="0" width="189" y="0" height="188"/></clipPath><clipPath id="9b7c8978cf"><path d="M 29 89 L 152 89 L 152 255 L 29 255 Z M 29 89 " clip-rule="nonzero"/></clipPath><clipPath id="2412f6cceb"><path d="M 151.59375 97.589844 L 80.371094 254.949219 L 2.023438 219.484375 L 73.246094 62.128906 Z M 151.59375 97.589844 " clip-rule="nonzero"/></clipPath><clipPath id="d1d1339e46"><path d="M 151.59375 97.589844 L 80.371094 254.949219 L 2.023438 219.484375 L 73.246094 62.128906 Z M 151.59375 97.589844 " clip-rule="nonzero"/></clipPath><clipPath id="981494892c"><rect x="0" width="917" y="0" height="256"/></clipPath></defs><rect x="-150" width="1800" fill="#ffffff" y="-149.999993" height="1799.99992" fill-opacity="1"/><rect x="-150" width="1800" fill="#ffffff" y="-149.999993" height="1799.99992" fill-opacity="1"/><g transform="matrix(1, 0, 0, 1, 267, 608)"><g clip-path="url(#981494892c)"><g clip-path="url(#b2c87647d6)"><g transform="matrix(1, 0, 0, 1, 221, 0.000000000000113687)"><g clip-path="url(#fa2d4f9046)"><g fill="#201e1f" fill-opacity="1"><g transform="translate(1.109532, 164.605096)"><g><path d="M 67.171875 2.4375 C 57.390625 2.4375 48.757812 0.664062 41.28125 -2.875 C 33.800781 -6.425781 27.519531 -11.289062 22.4375 -17.46875 C 17.351562 -23.65625 13.539062 -30.773438 11 -38.828125 C 8.457031 -46.890625 7.1875 -55.472656 7.1875 -64.578125 C 7.1875 -73.691406 8.457031 -82.273438 11 -90.328125 C 13.539062 -98.378906 17.351562 -105.472656 22.4375 -111.609375 C 27.519531 -117.742188 33.800781 -122.582031 41.28125 -126.125 C 48.757812 -129.675781 57.390625 -131.453125 67.171875 -131.453125 C 76.953125 -131.453125 85.582031 -129.675781 93.0625 -126.125 C 100.539062 -122.582031 106.816406 -117.742188 111.890625 -111.609375 C 116.972656 -105.472656 120.785156 -98.378906 123.328125 -90.328125 C 125.867188 -82.273438 127.140625 -73.691406 127.140625 -64.578125 C 127.140625 -55.472656 125.867188 -46.890625 123.328125 -38.828125 C 120.785156 -30.773438 116.972656 -23.65625 111.890625 -17.46875 C 106.816406 -11.289062 100.539062 -6.425781 93.0625 -2.875 C 85.582031 0.664062 76.953125 2.4375 67.171875 2.4375 Z M 28.765625 -64.578125 C 28.765625 -50.960938 31.953125 -40.101562 38.328125 -32 C 44.703125 -23.894531 54.316406 -19.84375 67.171875 -19.84375 C 80.015625 -19.84375 89.625 -23.894531 96 -32 C 102.375 -40.101562 105.5625 -50.960938 105.5625 -64.578125 C 105.5625 -73.585938 104.144531 -81.425781 101.3125 -88.09375 C 98.488281 -94.757812 94.25 -99.9375 88.59375 -103.625 C 82.9375 -107.320312 75.796875 -109.171875 67.171875 -109.171875 C 54.316406 -109.171875 44.703125 -105.140625 38.328125 -97.078125 C 31.953125 -89.023438 28.765625 -78.191406 28.765625 -64.578125 Z M 28.765625 -64.578125 "/></g></g></g><g fill="#201e1f" fill-opacity="1"><g transform="translate(133.994932, 164.605096)"><g><path d="M 66.015625 2.875 C 56.804688 2.875 48.96875 0.570312 42.5 -4.03125 C 36.03125 -8.632812 31.453125 -16.207031 28.765625 -26.75 L 24.453125 -26.75 L 28.765625 0 L 7.1875 0 L 7.1875 -129.453125 L 28.765625 -129.296875 L 28.765625 -100.6875 L 24.453125 -71.046875 L 28.765625 -71.046875 C 31.453125 -81.597656 36.03125 -89.175781 42.5 -93.78125 C 48.96875 -98.382812 56.804688 -100.6875 66.015625 -100.6875 C 73.109375 -100.6875 79.722656 -99.34375 85.859375 -96.65625 C 92.003906 -93.96875 97.445312 -90.25 102.1875 -85.5 C 106.9375 -80.757812 110.628906 -75.269531 113.265625 -69.03125 C 115.898438 -62.800781 117.21875 -56.140625 117.21875 -49.046875 C 117.21875 -41.859375 115.898438 -35.125 113.265625 -28.84375 C 110.628906 -22.5625 106.9375 -17.046875 102.1875 -12.296875 C 97.445312 -7.546875 92.003906 -3.828125 85.859375 -1.140625 C 79.722656 1.535156 73.109375 2.875 66.015625 2.875 Z M 28.765625 -49.046875 C 28.765625 -42.046875 30.15625 -35.929688 32.9375 -30.703125 C 35.71875 -25.484375 39.671875 -21.429688 44.796875 -18.546875 C 49.929688 -15.671875 56.046875 -14.234375 63.140625 -14.234375 C 70.523438 -14.234375 76.613281 -15.742188 81.40625 -18.765625 C 86.195312 -21.785156 89.765625 -25.910156 92.109375 -31.140625 C 94.460938 -36.367188 95.640625 -42.335938 95.640625 -49.046875 C 95.640625 -55.847656 94.441406 -61.835938 92.046875 -67.015625 C 89.648438 -72.203125 86.054688 -76.253906 81.265625 -79.171875 C 76.472656 -82.097656 70.429688 -83.5625 63.140625 -83.5625 C 52.398438 -83.5625 43.984375 -80.539062 37.890625 -74.5 C 31.804688 -68.457031 28.765625 -59.972656 28.765625 -49.046875 Z M 28.765625 -49.046875 "/></g></g></g><g fill="#201e1f" fill-opacity="1"><g transform="translate(252.64231, 164.605096)"><g><path d="M 51.34375 1.4375 C 42.8125 1.4375 35.691406 0.355469 29.984375 -1.796875 C 24.285156 -3.953125 19.78125 -6.921875 16.46875 -10.703125 C 13.15625 -14.492188 10.78125 -18.8125 9.34375 -23.65625 C 7.90625 -28.5 7.1875 -33.609375 7.1875 -38.984375 L 28.1875 -38.984375 C 28.28125 -33.222656 29 -28.664062 30.34375 -25.3125 C 31.6875 -21.957031 34.035156 -19.5625 37.390625 -18.125 C 40.742188 -16.6875 45.394531 -15.96875 51.34375 -15.96875 C 57.863281 -15.96875 62.96875 -16.46875 66.65625 -17.46875 C 70.351562 -18.476562 72.96875 -19.914062 74.5 -21.78125 C 76.03125 -23.65625 76.796875 -25.835938 76.796875 -28.328125 C 76.796875 -32.265625 75.40625 -35.210938 72.625 -37.171875 C 69.851562 -39.140625 66.019531 -40.507812 61.125 -41.28125 L 43.578125 -44.15625 C 31.492188 -46.070312 22.863281 -49.929688 17.6875 -55.734375 C 12.507812 -61.535156 9.921875 -68.65625 9.921875 -77.09375 C 9.921875 -81.601562 11.164062 -85.75 13.65625 -89.53125 C 16.15625 -93.320312 20.328125 -96.367188 26.171875 -98.671875 C 32.023438 -100.972656 39.9375 -102.125 49.90625 -102.125 C 58.914062 -102.125 66.320312 -101.039062 72.125 -98.875 C 77.925781 -96.71875 82.457031 -93.890625 85.71875 -90.390625 C 88.976562 -86.890625 91.253906 -83.078125 92.546875 -78.953125 C 93.847656 -74.835938 94.5 -70.765625 94.5 -66.734375 L 73.5 -66.59375 C 73.5 -73.019531 71.769531 -77.910156 68.3125 -81.265625 C 64.863281 -84.617188 58.726562 -86.296875 49.90625 -86.296875 C 44.4375 -86.296875 40.144531 -85.816406 37.03125 -84.859375 C 33.914062 -83.898438 31.734375 -82.601562 30.484375 -80.96875 C 29.242188 -79.34375 28.625 -77.523438 28.625 -75.515625 C 28.625 -72.535156 29.867188 -69.65625 32.359375 -66.875 C 34.847656 -64.09375 38.875 -62.273438 44.4375 -61.421875 L 61.125 -58.6875 C 69.945312 -57.34375 76.96875 -55.328125 82.1875 -52.640625 C 87.414062 -49.953125 91.179688 -46.519531 93.484375 -42.34375 C 95.785156 -38.175781 96.9375 -33.078125 96.9375 -27.046875 C 96.9375 -23.785156 96.238281 -20.472656 94.84375 -17.109375 C 93.457031 -13.753906 91.0625 -10.6875 87.65625 -7.90625 C 84.257812 -5.125 79.609375 -2.867188 73.703125 -1.140625 C 67.804688 0.574219 60.351562 1.4375 51.34375 1.4375 Z M 51.34375 1.4375 "/></g></g></g><g clip-path="url(#515d4a2cac)"><g fill="#201e1f" fill-opacity="1"><g transform="translate(356.764719, 164.605096)"><g><path d="M 7.1875 -100.6875 L 28.765625 -100.6875 L 48.75 -15.828125 L 61.125 -15.828125 L 80.96875 -100.6875 L 102.84375 -100.6875 L 78.8125 0.140625 C 77.09375 7.335938 75.296875 13.617188 73.421875 18.984375 C 71.554688 24.359375 68.894531 28.84375 65.4375 32.4375 C 61.988281 36.03125 57.21875 38.710938 51.125 40.484375 C 45.039062 42.265625 36.960938 43.15625 26.890625 43.15625 L 26.890625 25.75 C 33.796875 25.75 39.09375 25.03125 42.78125 23.59375 C 46.476562 22.15625 49.238281 19.875 51.0625 16.75 C 52.882812 13.632812 54.320312 9.585938 55.375 4.609375 L 56.375 0 L 31.359375 0 Z M 7.1875 -100.6875 "/></g></g></g></g><g fill="#201e1f" fill-opacity="1"><g transform="translate(466.783513, 164.605096)"><g><path d="M 7.1875 0 L 7.1875 -100.6875 L 28.765625 -100.6875 L 24.453125 -71.046875 L 28.765625 -71.046875 C 30.390625 -78.242188 33.097656 -84 36.890625 -88.3125 C 40.679688 -92.625 45.257812 -95.765625 50.625 -97.734375 C 56 -99.703125 61.753906 -100.6875 67.890625 -100.6875 C 72.585938 -100.6875 77.285156 -99.960938 81.984375 -98.515625 C 86.679688 -97.078125 90.992188 -94.582031 94.921875 -91.03125 C 98.859375 -87.488281 102.023438 -82.53125 104.421875 -76.15625 C 106.816406 -69.78125 108.015625 -61.609375 108.015625 -51.640625 L 108.015625 0 L 86.4375 0 L 86.4375 -51.640625 C 86.4375 -59.972656 85.3125 -66.441406 83.0625 -71.046875 C 80.8125 -75.648438 77.765625 -78.863281 73.921875 -80.6875 C 70.085938 -82.507812 65.726562 -83.421875 60.84375 -83.421875 C 56.90625 -83.421875 53.039062 -82.914062 49.25 -81.90625 C 45.46875 -80.90625 42.039062 -79.226562 38.96875 -76.875 C 35.90625 -74.53125 33.460938 -71.296875 31.640625 -67.171875 C 29.816406 -63.046875 28.90625 -57.867188 28.90625 -51.640625 L 28.765625 0 Z M 7.1875 0 "/></g></g></g><g fill="#201e1f" fill-opacity="1"><g transform="translate(581.97968, 164.605096)"><g><path d="M 7.1875 -50.203125 C 7.1875 -57.296875 8.429688 -63.984375 10.921875 -70.265625 C 13.421875 -76.546875 16.921875 -82.082031 21.421875 -86.875 C 25.929688 -91.664062 31.207031 -95.40625 37.25 -98.09375 C 43.289062 -100.78125 49.8125 -102.125 56.8125 -102.125 C 67.164062 -102.125 75.914062 -100.15625 83.0625 -96.21875 C 90.207031 -92.289062 95.71875 -87.113281 99.59375 -80.6875 C 103.476562 -74.257812 105.660156 -67.257812 106.140625 -59.6875 L 84.28125 -59.6875 C 83.03125 -68.03125 79.9375 -73.78125 75 -76.9375 C 70.0625 -80.101562 64 -81.6875 56.8125 -81.6875 C 50.769531 -81.6875 45.660156 -80.203125 41.484375 -77.234375 C 37.316406 -74.265625 34.15625 -70.378906 32 -65.578125 C 29.84375 -60.785156 28.765625 -55.660156 28.765625 -50.203125 C 28.765625 -44.640625 29.84375 -39.484375 32 -34.734375 C 34.15625 -29.984375 37.316406 -26.171875 41.484375 -23.296875 C 45.660156 -20.421875 50.769531 -18.984375 56.8125 -18.984375 C 64 -18.984375 70.0625 -20.613281 75 -23.875 C 79.9375 -27.132812 83.03125 -32.648438 84.28125 -40.421875 L 106.140625 -40.421875 C 105.660156 -32.835938 103.476562 -25.878906 99.59375 -19.546875 C 95.71875 -13.222656 90.207031 -8.144531 83.0625 -4.3125 C 75.914062 -0.476562 67.164062 1.4375 56.8125 1.4375 C 49.8125 1.4375 43.289062 0.117188 37.25 -2.515625 C 31.207031 -5.148438 25.929688 -8.84375 21.421875 -13.59375 C 16.921875 -18.34375 13.421875 -23.832031 10.921875 -30.0625 C 8.429688 -36.289062 7.1875 -43.003906 7.1875 -50.203125 Z M 7.1875 -50.203125 "/></g></g></g></g></g></g><g clip-path="url(#ea626ee003)"><g clip-path="url(#0e0ef99895)"><g transform="matrix(1, 0, 0, 1, 1, 9)"><g clip-path="url(#3812f0a153)"><g clip-path="url(#7211c306cc)"><g clip-path="url(#0c1f20096d)"><path fill="#1b17ff" d="M 0.949219 0.359375 L 188.464844 0.359375 L 188.464844 187.875 L 0.949219 187.875 Z M 0.949219 0.359375 " fill-opacity="1" fill-rule="nonzero"/></g></g></g></g></g></g><g clip-path="url(#9b7c8978cf)"><g clip-path="url(#2412f6cceb)"><g clip-path="url(#d1d1339e46)"><path fill="#ffffff" d="M 91.09375 231.261719 C 60.710938 217.511719 47.203125 181.664062 60.953125 151.28125 C 74.707031 120.898438 110.550781 107.390625 140.933594 121.140625 L 151.566406 97.65625 C 108.179688 78.019531 57.105469 97.265625 37.46875 140.652344 C 17.832031 184.035156 37.136719 234.976562 80.523438 254.613281 Z M 91.09375 231.261719 " fill-opacity="1" fill-rule="nonzero"/></g></g></g></g></g></svg>